<svg xmlns="http://www.w3.org/2000/svg" xmlns:ns2="http://design.blush" xmlns:xlink="http://www.w3.org/1999/xlink" width="264px" height="280px" viewBox="0 0 264 280" version="1.1">
    <title id="transparent_Title">Avataaar/Default</title>
    <desc>Created with python_avatars</desc>
    <defs>
        <path d="M100,0 C130.927946,-5.68137151e-15 156,25.072054 156,56 L156.000809,62.1660527 C161.675838,63.1185422 166,68.05429 166,74 L166,88 C166,94.0524166 161.519235,99.0582945 155.693975,99.8813638 C153.627928,119.686472 141.237929,136.421678 124.001014,144.610469 L124,163 L128,163 C167.764502,163 200,195.235498 200,235 L200,244 L0,244 L0,235 C-4.86974701e-15,195.235498 32.235498,163 72,163 L76,163 L75.9999836,144.610943 C58.7625487,136.422324 46.3721119,119.686854 44.3051107,99.8809698 C38.480765,99.0582945 34,94.0524166 34,88 L34,74 C34,68.053942 38.3246685,63.1179645 44.0001873,62.1658855 L44,56 C44,25.072054 69.072054,5.68137151e-15 100,0 Z" id="transparent_path-1" />
        <path d="M83,36.3476251 C83,52.6289957 105.161905,65.8276544 132.5,65.8276544 C159.838095,65.8276544 182,52.6289957 182,36.3476251 C182,34.9853134 181.844841,33.6445843 181.544472,32.3313638 C210.784239,41.4879251 232,68.792221 232,101.051724 L232,110 L32,110 L32,101.051724 C32,68.3970853 53.7386736,40.8197864 83.5337207,32.0021267 C83.1821692,33.4207025 83,34.871494 83,36.3476251 Z" id="transparent_path-3" />
        <rect id="transparent_path-5" x="0" y="0" width="264" height="280" />
        <path d="M74,0 C114.869071,0 148,33.1309285 148,74 L148,84.1482318 L148,197.608051 C135.525121,187.236892 119.490913,181 102,181 L102,181 L98,181 L98,162.610951 C115.530782,154.282984 128.048193,137.114792 129.791419,116.867187 C135.569129,116.002364 140,111.018625 140,105 L140,105 L140,92 C140,87.3536213 137.359271,83.3240177 133.496777,81.3301515 C132.723933,81.0500337 131.951808,80.748163 131.180891,80.4262497 C130.794819,80.3202581 130.400778,80.2331546 130,80.1659169 L130,80.1659169 L130.000458,79.9172528 C117.224481,74.2339715 104.877985,63.0706967 96.1104311,47.8848473 C93.1752556,42.8009742 90.8310687,37.5951441 89.0661426,32.3970356 C80.4313947,42.9409152 67.7445474,53.6023901 52.3415164,62.4953343 C42.777598,68.0170651 33.1467898,72.2910056 24,75.2659587 L24.0003852,137.246608 C29.6019576,148.318362 38.7728825,157.277529 50,162.610951 L50,162.610951 L50,181 L46,181 C38.3273639,181 30.9350359,182.200142 24.0004995,184.422941 L24,230 C24,244.105888 13.5691766,255.775526 0,257.716445 L0,74 C0,33.1309285 33.1309285,0 74,0 Z" id="transparent_path-7" />
    </defs>
    <g id="transparent_Avataaar/Default" stroke="none" stroke-width="1" fill="none" fill-rule="evenodd">
        <g id="transparent_Body" transform="translate(32.000000, 36.000000)">
            <mask id="transparent_mask-2" fill="white">
                <use xlink:href="#transparent_path-1" />
            </mask>
            <use fill="#D0C6AC" xlink:href="#transparent_path-1" />
            <g id="transparent_Skin-Color" mask="url(#transparent_mask-2)" fill="#F8D25C">
                <g transform="translate(-32.000000, 0.000000)" id="transparent_Color">
                    <rect x="0" y="0" width="264" height="244" />
                </g>
            </g>
            <path d="M44,94 C44,124.927946 69.072054,150 100,150 C130.927946,150 156,124.927946 156,94 L156,94 L156,102 C156,132.927946 130.927946,158 100,158 C69.072054,158 44,132.927946 44,102 Z" id="transparent_Neck-Shadow" fill-opacity="0.100000001" fill="#000000" mask="url(#transparent_mask-2)" />
        </g>
        <g id="transparent_Clothing" transform="translate(0.000000, 170.000000)">
            
        <g id="jedi_robe_Clothing/Jedi robe" stroke="none" stroke-width="1" fill="none" fill-rule="evenodd">
        <g id="jedi_robe_Robe" transform="translate(31.000000, 27.500000)">
            <path d="M77.0002,1.8388 C77.0002,1.8388 100.4152,19.9298 125.0262,1.8388 L144.7322,1.8388 L146.6392,82.8388 L53.7902,82.8388 L56.4622,1.8388 L77.0002,1.8388 Z" id="jedi_robe_Fabric-Color" fill="#929598" ns2:color="Top-500" />
            <path d="M144.732,1.8388 L145.05,15.3598 L82.694,82.8388 L59.513,82.8388 L134.365,1.8388 L144.732,1.8388 Z M145.3534,28.2147 L145.9284,52.6767 L118.0564,82.8387 L94.8764,82.8387 L145.3534,28.2147 Z M55.4976,31.0798 L83.4626,56.9218 L71.9076,69.4258 L54.7556,53.5748 L55.4976,31.0798 Z M68.9459,1.8391 L104.2319,34.4461 L92.6779,46.9491 L56.0899,13.1381 L56.4619,1.8391 L68.9459,1.8391 Z" id="jedi_robe_Combined-Shape" fill-opacity=".3" fill="#FFF" />
            <path d="M0.0095,72.6474 L0.0005,73.8384 L0.0005,82.8384 L68.7465,82.8384 L68.7465,0.0004 C17.4125,0.0004 0.4205,47.3044 0.0095,72.6474" id="jedi_robe_Fill-14" fill="#282828" />
            <path d="M61.0934,0.538 L61.0934,82.839 L68.7464,82.839 L68.7464,0 C66.0854,0 63.5354,0.185 61.0934,0.538" id="jedi_robe_Fill-17" fill="#070707" />
            <path d="M202.0104,72.6474 L202.0204,73.8384 L202.0204,82.8384 L133.2744,82.8374 L133.2744,0.0004 C184.6074,0.0004 201.5994,47.3044 202.0104,72.6474" id="jedi_robe_Fill-20" fill="#282828" />
            <path d="M140.8268,0.538 L140.8268,82.838 L133.2738,82.838 L133.2738,0 C135.8998,0 138.4168,0.185 140.8268,0.538" id="jedi_robe_Fill-23" fill="#070707" />
        </g>
    </g>
</g>
        <g id="transparent_Face" transform="translate(76.000000, 82.000000)" fill="#000000">
            <g id="transparent_Mouth" transform="translate(2.000000, 52.000000)">    
                
            <defs>
        <path d="M34.0082051,15.1361102 C35.1280248,29.123916 38.2345159,40.9925405 53.9961505,40.9999965 C69.757785,41.0074525 72.9169073,29.0566179 73.9942614,15.0063928 C74.0809675,13.8756222 73.1738581,12.9999965 72.0369872,12.9999965 C65.3505138,12.9999965 62.6703194,14.9936002 53.9894323,14.9999965 C45.3085452,15.0063928 40.7567994,12.9999965 36.0924943,12.9999965 C34.9490269,12.9999965 33.8961688,13.7366502 34.0082051,15.1361102 Z" id="scream_open_path-1" />
    </defs>
    <g id="scream_open_Mouth/Scream-Open" stroke="none" stroke-width="1" fill="none" fill-rule="evenodd">
        <mask id="scream_open_mask-2" fill="white">
            <use xlink:href="#scream_open_path-1" transform="translate(54.000000, 26.999998) scale(1, -1) translate(-54.000000, -26.999998)" />
        </mask>
        <use id="scream_open_Mouth" fill-opacity="0.699999988" fill="#000000" transform="translate(54.000000, 26.999998) scale(1, -1) translate(-54.000000, -26.999998)" xlink:href="#scream_open_path-1" />
        <path d="M44,2 L65,2 C67.7614237,2 70,4.23857625 70,7 L70,13 C70,15.7614237 67.7614237,18 65,18 L44,18 C41.2385763,18 39,15.7614237 39,13 L39,7 C39,4.23857625 41.2385763,2 44,2 Z" id="scream_open_Teeth" fill="#FFFFFF" mask="url(#scream_open_mask-2)" />
        <g id="scream_open_Tongue" mask="url(#scream_open_mask-2)" fill="#FF4F6D">
            <g transform="translate(38.000000, 32.000000)" id="scream_open_Say-ahhhh">
                <circle cx="11" cy="11" r="11" />
                <circle cx="21" cy="11" r="11" />
            </g>
        </g>
    </g>
</g>
            <g id="transparent_Nose" transform="translate(28.000000, 40.000000)" fill-opacity="0.16">
                
            <g id="small_Nose/Small" stroke="none" stroke-width="1" fill="none" fill-rule="evenodd"><path d="M20,7 C20,12.5228475 24.0470996,15 28,15 C31.9529004,15 36,12.5228475 36,7 C33.8327451,7.7317728 31.1406373,8.0976592 27.9236765,8.0976592 C24.7406373,8.0976592 22.0994118,7.7317728 20,7 Z" id="small_Nose" fill-opacity=".16" fill="#000" /></g></g>
            <g id="transparent_Eyes" transform="translate(0.000000, 8.000000)">
                
            <g id="happy_Eyes/Happy-ðŸ˜" stroke="none" stroke-width="1" fill="none" fill-rule="evenodd" fill-opacity="0.599999964">
        <path d="M16.1601674,22.4473116 C18.006676,18.648508 22.1644225,16 26.9975803,16 C31.8136766,16 35.9591217,18.629842 37.8153518,22.4071242 C38.3667605,23.5291977 37.5821037,24.4474817 36.790607,23.7670228 C34.3395063,21.6597833 30.8587163,20.3437884 26.9975803,20.3437884 C23.2572061,20.3437884 19.8737584,21.5787519 17.4375392,23.5716412 C16.5467928,24.3002944 15.6201012,23.5583844 16.1601674,22.4473116 Z" id="happy_Squint" fill="#000000" />
        <path d="M74.1601674,22.4473116 C76.006676,18.648508 80.1644225,16 84.9975803,16 C89.8136766,16 93.9591217,18.629842 95.8153518,22.4071242 C96.3667605,23.5291977 95.5821037,24.4474817 94.790607,23.7670228 C92.3395063,21.6597833 88.8587163,20.3437884 84.9975803,20.3437884 C81.2572061,20.3437884 77.8737584,21.5787519 75.4375392,23.5716412 C74.5467928,24.3002944 73.6201012,23.5583844 74.1601674,22.4473116 Z" id="happy_Squint" fill="#000000" />
    </g>
</g>
            <g id="transparent_Eyebrow" fill-opacity="0.599999964">
                
            <g id="angry_natural_Eyebrow/Natural/Angry-Natural" stroke="none" stroke-width="1" fill="none" fill-rule="evenodd" fill-opacity="0.599999964">
        <path d="M44.8565785,12.2282877 C44.8578785,12.2192877 44.8578785,12.2192877 44.8565785,12.2282877 M17.5862288,7.89238094 C15.2441598,8.3302947 13.0866155,9.78806858 12.1523766,12.0987479 C11.8009169,12.967391 11.3917103,14.9243181 11.7083227,15.8073302 C11.8284629,16.14295 12.0332321,16.1008692 12.9555234,16.0430509 C14.643791,15.9369937 16.9330912,13.6622369 18.7484684,13.2557982 C21.2753939,12.6899315 23.9825295,13.1148447 26.4961798,13.6882381 C30.8109365,14.6725177 36.4854008,17.7875215 40.9461842,16.1699775 C41.2783949,16.0495512 45.6210294,12.9225732 44.3685187,12.2769925 C43.9238011,11.9068186 41.1370145,12.0854053 40.6216067,11.9988489 C38.2277647,11.5971998 35.7297127,10.9345131 33.373373,10.3265657 C28.2329017,9.00016592 22.9666484,6.88073171 17.5862288,7.89238094" id="angry_natural_Eyebrows-The-Web" fill="#000000" transform="translate(28.094701, 12.127505) rotate(17.000000) translate(-28.094701, -12.127505) " />
        <path d="M100.918293,12.2094196 C100.919593,12.2004196 100.919593,12.2004196 100.918293,12.2094196 M73.5862288,7.89238094 C71.2441598,8.3302947 69.0866155,9.78806858 68.1523766,12.0987479 C67.8009169,12.967391 67.3917103,14.9243181 67.7083227,15.8073302 C67.8284629,16.14295 68.0332321,16.1008692 68.9555234,16.0430509 C70.643791,15.9369937 72.9330912,13.6622369 74.7484684,13.2557982 C77.2753939,12.6899315 79.9825295,13.1148447 82.4961798,13.6882381 C86.8109365,14.6725177 92.4854008,17.7875215 96.9461842,16.1699775 C97.2783949,16.0495512 101.621029,12.9225732 100.368519,12.2769925 C99.9238011,11.9068186 97.1370145,12.0854053 96.6216067,11.9988489 C94.2277647,11.5971998 91.7297127,10.9345131 89.373373,10.3265657 C84.2329017,9.00016592 78.9666484,6.88073171 73.5862288,7.89238094" id="angry_natural_Eyebrows-The-Web" fill="#000000" transform="translate(84.094701, 12.127505) scale(-1, 1) rotate(17.000000) translate(-84.094701, -12.127505) " />
    </g>
</g>
        </g>
        <g id="transparent_Top">
            
        <defs>
        <path d="M115.047127,11.5221924 C123.696621,7.68056516 136.518413,11.1815193 146,20 C155.565732,29.4156112 163.20059,50.1998818 158.656587,67.206592 C158.762179,68.4709859 158.815476,69.7499388 158.815476,71.0408963 L158.81538,92.8915741 C157.93388,87.918162 153.989047,84.0031135 149.000444,83.1659914 L149,83 C142.96334,61.4623862 125.226514,51.5783743 114.426942,41.7746242 C97.7068349,60.4842687 45.8737931,60.735696 27.5450892,96.8932694 L27,98 L27,108 C27,114.018777 31.4310943,119.002616 37.2090181,119.867253 C38.9518263,140.114813 51.4692242,157.28298 68.9999836,165.610943 L68.9989935,165.999757 C68.999329,165.999838 68.9996645,165.999919 69,166 C71.9303712,209.855112 62.358462,264.797432 0,248 C13.642322,240.016339 20.8468043,188.781043 21.001396,157.286981 L21,69.046252 C21,65.5176475 21.3973049,62.0818385 22.1496203,58.7811194 C25.2010611,38.7368957 36.7729938,22.8125737 50,13 C69.9046773,-1.75964173 103.442051,-6.01829672 115.047127,11.5221924 Z M158.81538,110.108426 L158.815476,111.47039 C158.815476,127.298552 162.572711,142.900645 169.7782,156.993609 L196.726668,209.701177 C203.690155,223.320818 201.645331,239.175364 192.789213,250.470883 C189.995202,213.661344 159.522394,184.58658 122.135045,184.008765 L121,184 L117,183.999002 L117.001014,165.610469 C134.530962,157.282467 147.047794,140.114995 148.791329,119.868237 C153.877493,119.106788 157.921483,115.151777 158.81538,110.108426 Z" id="straight_1_path-1" />
    </defs>
    <g id="straight_1_Top/Long-Hair/Straight" stroke="none" stroke-width="1" fill="none" fill-rule="evenodd">
        <g id="straight_1_Hair" transform="translate(39.000000, 15.000000)">
            <mask id="straight_1_mask-2" fill="white">
                <use xlink:href="#straight_1_path-1" />
            </mask>
            <use fill="#272C2E" xlink:href="#straight_1_path-1" />
            <g id="straight_1_Hair-Color" mask="url(#straight_1_mask-2)" fill="#2C1B18">
                <g transform="translate(-39.000000, -15.000000)" id="straight_1_Color">
                    <rect x="0" y="0" width="264" height="280" />
                </g>
            </g>
        </g>
        <path d="M188.684881,96.9208507 L188.952,97.836113 L188.761365,97.2675805 C182.508878,79.1238261 165.090633,72.6061964 154.429684,64.2083647 C137.535357,80.6069148 84.8226408,80.6646674 67,113 C84.8233411,75.7383428 137.539499,75.6732531 154.431675,56.7748854 C165.044492,66.4131358 182.367415,76.1292263 188.684881,96.9208507 Z M188.952,97.836113 L188.959163,97.8569124 L189,98 L189,98 L188.952,97.836113 Z" id="straight_1_Shadow" fill-opacity="0.16" fill="#000000" />
        <g id="straight_1_Facial-Hair" transform="translate(49.000000, 72.000000)" />
        <g id="straight_1_Accessory" transform="translate(62.000000, 85.000000)" />
    </g>
</g>
    </g>
</svg>